# xmcd
#
# Track frame offsets: 
#        150
#        12711
#        26595
#        37291
#        51821
#        63931
#        76278
#        88385
#        99332
#        117565
#        131738
#        146770
#        159443
#        173164
#        185972
#
# Disc length: 2643 seconds
#
# Revision: 0
# Processed by: cddbd v1.5.2PL0 Copyright (c) Steve Scherf et al.
# Submitted via: ExactAudioCopy v0.99pb5
#
DISCID=dc0a510f
DTITLE=Johnny Cash - Icons [CD3]
DYEAR=2010
DGENRE=Country
TTITLE0=Any Old Wind That Blows
TTITLE1=Oney
TTITLE2=Old Shep
TTITLE3=The L&N Don't Stop Here Anymore
TTITLE4=Hit The Road And Go
TTITLE5=The Lady Came From Baltimore
TTITLE6=Texas
TTITLE7=Down The Road I Go
TTITLE8=One Piece At A Time
TTITLE9=In A Young Girl's Mind
TTITLE10=Commited To Parkview
TTITLE11=The Last Gunfighter Ballad
TTITLE12=That Silver Haired Daddy Of Mine
TTITLE13=I Would Like To See You Again
TTITLE14=I Wish I Was Crazy Again
EXTD=
EXTT0=
EXTT1=
EXTT2=
EXTT3=
EXTT4=
EXTT5=
EXTT6=
EXTT7=
EXTT8=
EXTT9=
EXTT10=
EXTT11=
EXTT12=
EXTT13=
EXTT14=
PLAYORDER=
